<?xml version="1.0" encoding="UTF-8"?>
<svg width="143px" height="42px" viewBox="0 0 143 42" version="1.1" xmlns="http://www.w3.org/2000/svg" xmlns:xlink="http://www.w3.org/1999/xlink">
    <!-- Generator: Sketch 47.1 (45422) - http://www.bohemiancoding.com/sketch -->
    <title>logo</title>
    <desc>Created with Sketch.</desc>
    <defs>
        <polygon id="path-1" points="142.881244 21.1220686 142.881244 18.6307605 130.336636 18.6307605 130.336636 21.1220686 142.881244 21.1220686"></polygon>
    </defs>
    <g id="/labor-union" stroke="none" stroke-width="1" fill="none" fill-rule="evenodd">
        <g id="index-03" transform="translate(-149.000000, -22.000000)">
            <g id="logo" transform="translate(149.000000, 22.000000)">
                <path d="M16.8894076,21.5799174 C16.8894076,19.9040686 16.3743861,18.5549407 15.3450814,17.5332663 C14.3154076,16.4987721 12.969337,15.981464 11.3060083,15.981464 C9.57671738,15.981464 8.1378568,16.6101209 6.98942651,17.8676791 C5.85404096,19.1113186 5.28647126,20.6769174 5.28647126,22.5621558 C5.28647126,24.2123651 5.77528021,25.5612488 6.7519136,26.608807 C7.74196093,27.6170512 9.04877418,28.1215395 10.6723534,28.1215395 C12.4806511,28.1215395 13.9656606,27.5059465 15.1272587,26.2748826 C16.3019015,25.0311209 16.8894076,23.4660105 16.8894076,21.5799174 L16.8894076,21.5799174 Z M21.9185281,12.7993535 L19.6216675,31.441493 C19.4766985,32.554493 19.3149928,33.5234233 19.1367966,34.3487721 C18.9584773,35.1736326 18.7573912,35.8674872 18.5328,36.4310686 C18.0710651,37.5833826 17.3846158,38.5719698 16.4736985,39.3970744 C14.7047811,40.9685337 12.4080435,41.7544465 9.58323976,41.7544465 C6.66626127,41.7544465 4.30319243,40.9949058 2.49489466,39.4754581 C1.57080947,38.7161616 0.924109811,37.8518651 0.55454957,36.8828128 C0.184989329,35.9920221 2.46127366e-05,34.7415453 2.46127366e-05,33.13065 L4.23710723,33.13065 C4.34281893,34.872307 4.79175525,36.1395105 5.58367005,36.9317721 C6.37558485,37.7241558 7.60314509,38.1202256 9.26671997,38.1202256 C11.0618499,38.1202256 12.4278568,37.6454058 13.3649867,36.6963767 C14.3023628,35.7463709 14.8962682,34.2374233 15.1470719,32.1681907 L15.4638379,29.6342721 C13.6159136,31.0351674 11.6755685,31.7361035 9.64267952,31.7361035 C7.10842909,31.7361035 5.01610034,30.8780337 3.36618554,29.1625047 C1.71602461,27.4079058 0.891128744,25.2208535 0.891128744,22.6014698 C0.891128744,19.6548767 1.84819501,17.21265 3.76208141,15.2743012 C5.68925869,13.3228884 8.09810723,12.3476093 10.9892423,12.3476093 C12.3753086,12.3476093 13.4972802,12.5501616 14.3550341,12.9564872 C15.2922871,13.3495047 16.2625212,14.0632605 17.2657363,15.0977547 L17.5427527,12.7993535 L21.9185281,12.7993535 Z" id="Fill-1" fill="#FFFFFF"></path>
                <path d="M39.8189161,21.6587285 C39.8189161,19.8773913 39.2973722,18.4699029 38.2545306,17.4351645 C37.2116889,16.3612343 35.8454359,15.8243913 34.1558946,15.8243913 C32.4005142,15.8243913 30.9483627,16.4203273 29.7999324,17.6119552 C28.6516252,18.8168913 28.0775331,20.3295017 28.0775331,22.1497866 C28.0775331,23.9831355 28.6185211,25.456432 29.7011123,26.5697983 C30.7835805,27.7089262 32.1825684,28.2787343 33.8986915,28.2787343 C35.6146915,28.2787343 37.0270934,27.6564262 38.1357741,26.4124203 C39.2576226,25.1816006 39.8189161,23.5968331 39.8189161,21.6587285 M44.234441,21.874711 C44.234441,24.7032401 43.2443937,27.0802692 41.2642991,29.005432 C39.2973722,30.9303506 36.8687104,31.8931762 33.9776984,31.8931762 C30.9551312,31.8931762 28.4867199,30.9830948 26.5725873,29.1625657 C24.645287,27.3290948 23.6819445,25.0110366 23.6819445,22.2088797 C23.6819445,19.3406703 24.6786373,16.9570483 26.6715306,15.0583797 C28.6780839,13.1462808 31.1858756,12.1904145 34.1956441,12.1904145 C37.1522491,12.1904145 39.5613438,13.094025 41.422682,14.9012459 C43.2969419,16.6822169 44.234441,19.0066238 44.234441,21.874711" id="Fill-3" fill="#FFFFFF"></path>
                <path d="M62.6533579,21.6587285 C62.6533579,19.8773913 62.1320602,18.4699029 61.0889724,17.4351645 C60.0463769,16.3612343 58.6801238,15.8243913 56.9905825,15.8243913 C55.234833,15.8243913 53.7828046,16.4203273 52.6343743,17.6119552 C51.485944,18.8168913 50.9118519,20.3295017 50.9118519,22.1497866 C50.9118519,23.9831355 51.4529629,25.456432 52.5354311,26.5697983 C53.6176531,27.7089262 55.0168872,28.2787343 56.7330102,28.2787343 C58.4491333,28.2787343 59.8614121,27.6564262 60.9702159,26.4124203 C62.0923106,25.1816006 62.6533579,23.5968331 62.6533579,21.6587285 M67.0685137,21.874711 C67.0685137,24.7032401 66.0787125,27.0802692 64.0986178,29.005432 C62.1320602,30.9303506 59.7030292,31.8931762 56.8123863,31.8931762 C53.7895731,31.8931762 51.3211617,30.9830948 49.4072753,29.1625657 C47.4797288,27.3290948 46.5162633,25.0110366 46.5162633,22.2088797 C46.5162633,19.3406703 47.5130791,16.9570483 49.5062185,15.0583797 C51.5125257,13.1462808 54.0205636,12.1904145 57.0299629,12.1904145 C59.9869371,12.1904145 62.3960318,13.094025 64.2570008,14.9012459 C66.1316299,16.6822169 67.0685137,19.0066238 67.0685137,21.874711" id="Fill-5" fill="#FFFFFF"></path>
                <path d="M100.633764,4.01843547 C100.633764,4.63402849 100.402774,5.1711157 99.9406694,5.62920872 C99.4786884,6.08766802 98.9177641,6.31683663 98.2578966,6.31683663 C97.6109509,6.31683663 97.0500266,6.081075 96.5748777,5.60955174 C96.0996058,5.12508663 95.8619698,4.55552267 95.8619698,3.90073779 C95.8619698,3.27183663 96.0929603,2.72864477 96.5549414,2.27018547 C97.0170455,1.81184826 97.5645559,1.58267965 98.1984569,1.58267965 C98.8582013,1.58267965 99.4261402,1.82479012 99.9010429,2.30962151 C100.38936,2.78090058 100.633764,3.35046453 100.633764,4.01843547 L100.633764,4.01843547 Z M99.3270739,12.7993657 L95.7234001,41.8919355 L91.3472555,41.8919355 L94.9509293,12.7993657 L99.3270739,12.7993657 Z" id="Fill-7" fill="#FFFFFF"></path>
                <path d="M117.099303,21.6587285 C117.099303,19.8773913 116.57776,18.4699029 115.534795,17.4351645 C114.491953,16.3612343 113.126069,15.8243913 111.436405,15.8243913 C109.681148,15.8243913 108.22875,16.4203273 107.08032,17.6119552 C105.932136,18.8168913 105.357797,20.3295017 105.357797,22.1497866 C105.357797,23.9831355 105.899155,25.456432 106.981377,26.5697983 C108.063599,27.7089262 109.462833,28.2787343 111.179325,28.2787343 C112.895325,28.2787343 114.307358,27.6564262 115.416161,26.4124203 C116.53801,25.1816006 117.099303,23.5968331 117.099303,21.6587285 M121.514336,21.874711 C121.514336,24.7032401 120.524658,27.0802692 118.544563,29.005432 C116.57776,30.9303506 114.148975,31.8931762 111.258209,31.8931762 C108.235396,31.8931762 105.767107,30.9830948 103.852852,29.1625657 C101.925674,27.3290948 100.962209,25.0110366 100.962209,22.2088797 C100.962209,19.3406703 101.958655,16.9570483 103.952164,15.0583797 C105.958471,13.1462808 108.466509,12.1904145 111.475908,12.1904145 C114.432883,12.1904145 116.841977,13.094025 118.702946,14.9012459 C120.577452,16.6822169 121.514336,19.0066238 121.514336,21.874711" id="Fill-9" fill="#FFFFFF"></path>
                <path d="M83.2504158,26.0392919 C82.1019855,27.3942802 80.6962291,28.071286 79.0329003,28.071286 C77.4356568,28.071286 76.1554253,27.5731465 75.1917136,26.5773558 C74.228248,25.5685012 73.7463306,24.233536 73.7463306,22.5740477 C73.7463306,20.6088384 74.3071318,18.9820709 75.4293496,17.6941116 C76.5511981,16.4061523 77.9703685,15.7623558 79.6863685,15.7623558 C81.2703212,15.7623558 82.5507988,16.2539023 83.5278014,17.2360186 C84.5043117,18.2185012 84.9926284,19.5064605 84.9926284,21.1001407 C84.9926284,23.0654721 84.4118909,24.7118965 83.2504158,26.0392919 L83.2504158,26.0392919 Z M87.5282325,2.44186047e-05 L85.6659098,15.3382047 C84.5703969,14.1300942 83.5210329,13.2965651 82.5179408,12.7918326 C81.554106,12.3007744 80.3661723,12.0661116 78.9536473,12.0661116 C76.1948057,12.0661116 73.9047136,13.0477395 72.083248,14.9996407 C70.2616594,16.9512977 69.3506189,19.4045128 69.3506189,22.3520826 C69.3506189,25.1140709 70.1822833,27.3724256 71.845489,29.125193 C73.5088177,30.8646523 75.6472954,31.7355419 78.2609219,31.7355419 C79.408983,31.7355419 80.3726947,31.5765767 81.1515647,31.2574256 C81.9436026,30.9125128 82.8807325,30.2339198 83.9629546,29.2649895 L83.7255647,31.2558384 L88.081773,31.2558384 L91.902162,2.44186047e-05 L87.5282325,2.44186047e-05 Z" id="Fill-11" fill="#FFFFFF"></path>
                <path d="M129.297511,26.0484733 C128.38081,25.0004267 127.876002,23.5825605 127.876002,22.0556651 C127.876002,20.527793 128.381179,19.1101709 129.298496,18.0640779 C130.276852,16.9487581 131.653811,16.334386 133.175863,16.334386 L142.044324,16.3168047 L141.95498,16.1148628 C140.356875,12.8596186 137.335046,12.2785779 137.335046,12.2785779 C135.881295,12.0784674 130.552761,12.2243686 130.552761,12.2243686 C130.552761,12.2243686 131.016095,9.50157209 131.667348,4.68304884 C131.494321,0.830525581 128.556545,0.285746512 127.543977,0.23239186 L122.938072,31.2557407 L123.231948,31.2557407 L134.709729,31.2557407 C135.601817,31.2557407 136.923275,30.3041477 137.685655,29.8085721 C138.519411,29.2659907 139.345784,28.5538221 140.015496,27.7768221 L133.169464,27.7804849 C131.649012,27.7719384 130.273898,27.1645256 129.297511,26.0484733" id="Fill-13" fill="#FFFFFF"></path>
                <path d="M131.016674,24.5535419 C131.560492,25.1754837 132.301459,25.5161233 133.160935,25.5263791 L141.700324,25.5288209 C141.965527,25.026164 142.379021,24.174443 142.572846,23.1976988 L130.309919,23.1976988 C130.453042,23.930257 130.691909,24.182257 131.016674,24.5535419" id="Fill-15" fill="#FFFFFF"></path>
                <mask id="mask-2" fill="white">
                    <use xlink:href="#path-1"></use>
                </mask>
                <g id="Clip-18"></g>
                <path d="M142.76853,18.6494407 L133.175838,18.6307605 C132.310085,18.6307605 131.562966,18.9413651 131.015702,19.5652605 C130.78348,19.8302023 130.595193,20.2073477 130.453916,20.5495744 C130.404444,20.731493 130.364818,20.7557895 130.336636,21.1220686 L142.806925,21.1220686 C142.861566,20.5116035 142.959894,19.3579465 142.76853,18.6494407" id="Fill-17" fill="#FFFFFF" mask="url(#mask-2)"></path>
            </g>
        </g>
    </g>
</svg>